<?xml version="1.0" encoding="UTF-8" standalone="no"?>
<!-- Generator: Adobe Illustrator 16.0.0, SVG Export Plug-In . SVG Version: 6.00 Build 0)  -->

<svg
   xmlns:dc="http://purl.org/dc/elements/1.1/"
   xmlns:cc="http://creativecommons.org/ns#"
   xmlns:rdf="http://www.w3.org/1999/02/22-rdf-syntax-ns#"
   xmlns:svg="http://www.w3.org/2000/svg"
   xmlns="http://www.w3.org/2000/svg"
   xmlns:sodipodi="http://sodipodi.sourceforge.net/DTD/sodipodi-0.dtd"
   xmlns:inkscape="http://www.inkscape.org/namespaces/inkscape"
   version="1.1"
   id="Capa_1"
   x="0px"
   y="0px"
   width="338.839px"
   height="338.839px"
   viewBox="0 0 338.839 338.839"
   style="enable-background:new 0 0 338.839 338.839;"
   xml:space="preserve"
   sodipodi:docname="inventory.svg"
   inkscape:version="0.92.3 (2405546, 2018-03-11)"
   inkscape:export-filename="C:\Users\Thoma\Google Drive\4 ThomasVDD\Recircle\RecircleCentralV1.1\inventory_1.png"
   inkscape:export-xdpi="300"
   inkscape:export-ydpi="300"><metadata
   id="metadata45"><rdf:RDF><cc:Work
       rdf:about=""><dc:format>image/svg+xml</dc:format><dc:type
         rdf:resource="http://purl.org/dc/dcmitype/StillImage" /><dc:title></dc:title></cc:Work></rdf:RDF></metadata><defs
   id="defs43">
		
		
	</defs><sodipodi:namedview
   pagecolor="#ffffff"
   bordercolor="#666666"
   borderopacity="1"
   objecttolerance="10"
   gridtolerance="10"
   guidetolerance="10"
   inkscape:pageopacity="0"
   inkscape:pageshadow="2"
   inkscape:window-width="2289"
   inkscape:window-height="1361"
   id="namedview41"
   showgrid="false"
   inkscape:zoom="2.785984"
   inkscape:cx="217.0219"
   inkscape:cy="166.98064"
   inkscape:window-x="3055"
   inkscape:window-y="0"
   inkscape:window-maximized="0"
   inkscape:current-layer="g8" />
<g
   id="g8">
	<path
   d="M 18.447266 18.183594 C 8.2602656 18.183594 -2.3684758e-015 26.441906 0 36.628906 L 0 283.76367 C 0 304.11367 16.549531 320.65625 36.894531 320.65625 L 301.94531 320.65625 C 322.29031 320.65625 338.83984 304.11367 338.83984 283.76367 L 338.83984 36.628906 C 338.83884 26.441906 330.57658 18.183594 320.39258 18.183594 C 310.20358 18.183594 301.94531 26.441906 301.94531 36.628906 L 301.94531 62.779297 L 301.52539 63.03125 L 301.52539 106.07812 L 301.95117 105.82227 L 301.95117 283.77344 L 301.94531 283.77344 L 301.94531 283.77539 L 36.888672 283.77539 L 36.888672 119.9375 L 37.056641 119.8457 L 37.056641 77.833984 L 36.894531 77.921875 L 36.894531 36.628906 C 36.894531 26.441906 28.638266 18.183594 18.447266 18.183594 z "
   id="path2" />
<path
   d="m 201.3669,58.08008 c -7.86615,0.20408 -15.62757,2.04267 -22.17357,5.55273 l -34.10549,18.26953 c -2.97818,1.597 -9.81243,1.26749 -12.6308,-0.60351 L 109.50999,66.04492 C 95.175928,56.51592 73.784604,55.54895 58.637391,63.75195 L 36.83681,75.5625 v 42.01172 L 76.366435,96.1543 c 2.948029,-1.591 9.73643,-1.29564 12.530673,0.56836 l 22.947052,15.2539 c 14.30693,9.511 35.68412,10.52621 50.83335,2.40821 l 34.09567,-18.26758 c 3.12693,-1.666 10.35772,-1.43774 13.36304,0.44726 L 235.92,112.6875 c 14.67883,9.182 36.14146,9.40372 51.00021,0.51172 l 15.22409,-9.10156 V 61.05273 l -34.33126,20.52149 c -2.78821,1.675 -9.39234,1.61809 -12.16749,-0.12891 L 229.86766,65.32617 c -8.10024,-5.06812 -18.38711,-7.50848 -28.50076,-7.24609 z"
   id="path2-7"
   inkscape:connector-curvature="0"
   style="stroke-width:1" /></g>
<g
   id="g10">
</g>
<g
   id="g12">
</g>
<g
   id="g14">
</g>
<g
   id="g16">
</g>
<g
   id="g18">
</g>
<g
   id="g20">
</g>
<g
   id="g22">
</g>
<g
   id="g24">
</g>
<g
   id="g26">
</g>
<g
   id="g28">
</g>
<g
   id="g30">
</g>
<g
   id="g32">
</g>
<g
   id="g34">
</g>
<g
   id="g36">
</g>
<g
   id="g38">
</g>
</svg>